<svg width="600" height="400" viewBox="0 0 680 420" xmlns="http://www.w3.org/2000/svg">
<defs>
  <linearGradient id="gMain" x1="0%" y1="100%" x2="100%" y2="0%">
    <stop offset="0%" stop-color="#7C3AED"/>
    <stop offset="100%" stop-color="#06B6D4"/>
  </linearGradient>
  <linearGradient id="gText" x1="0%" y1="0%" x2="100%" y2="0%">
    <stop offset="0%" stop-color="#a855f7"/>
    <stop offset="100%" stop-color="#22d3ee"/>
  </linearGradient>
  <linearGradient id="gGlow" x1="0%" y1="0%" x2="0%" y2="100%">
    <stop offset="0%" stop-color="#a855f7" stop-opacity="0.3"/>
    <stop offset="100%" stop-color="#06B6D4" stop-opacity="0"/>
  </linearGradient>
  <filter id="softblur">
    <feGaussianBlur stdDeviation="18" result="blur"/>
    <feComposite in="SourceGraphic" in2="blur" operator="over"/>
  </filter>
</defs>
<rect width="680" height="420" fill="#0a0a0f" rx="20"/>
<ellipse cx="340" cy="200" rx="200" ry="130" fill="url(#gGlow)" filter="url(#softblur)" opacity="0.7"/>
<circle cx="120" cy="80" r="3" fill="#7C3AED" opacity="0.5"/>
<circle cx="200" cy="50" r="2" fill="#06B6D4" opacity="0.4"/>
<circle cx="560" cy="70" r="3" fill="#a855f7" opacity="0.5"/>
<circle cx="600" cy="120" r="2" fill="#22d3ee" opacity="0.4"/>
<circle cx="80" cy="300" r="2" fill="#06B6D4" opacity="0.3"/>
<circle cx="620" cy="320" r="3" fill="#7C3AED" opacity="0.4"/>
<g transform="translate(247, 110)">
  <rect x="0" y="0" width="186" height="186" rx="40" fill="url(#gMain)"/>
  <rect x="3" y="3" width="180" height="180" rx="38" fill="none" stroke="rgba(255,255,255,0.15)" stroke-width="1"/>
  <rect x="0" y="0" width="186" height="93" rx="40" fill="rgba(255,255,255,0.08)"/>
  <path d="M118 42 L76 103 H102 L76 144 L134 83 H108 L134 42 Z" fill="white" opacity="0.95"/>
  <circle cx="148" cy="56" r="8" fill="rgba(255,255,255,0.2)"/>
  <circle cx="148" cy="56" r="4" fill="white" opacity="0.9"/>
</g>
<text x="340" y="340" text-anchor="middle" font-family="'Inter', system-ui, sans-serif" font-size="56" font-weight="800" letter-spacing="-1" fill="url(#gText)">SMMTool</text>
<text x="340" y="374" text-anchor="middle" font-family="'Inter', system-ui, sans-serif" font-size="14" font-weight="500" fill="rgba(255,255,255,0.35)" letter-spacing="4">SOCIAL MEDIA GROWTH</text>
</svg>
